# xmcd CD database file
#
# Track frame offsets:
#	206
#	33211
#	58167
#	82734
#	114667
#	132465
#	144910
#	172645
#	196420
#	224050
#
# Disc length: 3123 seconds
#
# Revision: 0
# Processed by: cddbd v1.5.2PL0 Copyright (c) Steve Scherf et al.
# Submitted via: CDex 1.70beta2
#
DISCID=880c310a
DTITLE=Frank Haunschild - Frank Haunschild - Looking Forward(1997)
DYEAR=1997
DGENRE=Jazz
TTITLE0=Open Air
TTITLE1=Rainy Holiday
TTITLE2=Bue Sky
TTITLE3=Shades of Yellow
TTITLE4=Waltz for Bill
TTITLE5=Minor Blue
TTITLE6=Softly As In A Morning Sunrise
TTITLE7=Paramour
TTITLE8=Melodic Mood
TTITLE9=Looking Forward
EXTD=YEAR: 1997
EXTT0=
EXTT1=
EXTT2=
EXTT3=
EXTT4=
EXTT5=
EXTT6=
EXTT7=
EXTT8=
EXTT9=
PLAYORDER=
